<svg height="512" viewBox="0 0 48 48" width="512" xmlns="http://www.w3.org/2000/svg"><g id="Customer_service_Gear" data-name="Customer service Gear"><path d="m47 25.49c0 3.1-4.58 1-6.37 5.36a5.18 5.18 0 0 0 .24 4.56c1.71 3.1 1.45 2.8-1.66 5.91-2.21 2.21-4-2.51-8.3-.71a5.06 5.06 0 0 0 -2.64 2.39c-.93 1.7-.55 4-2.78 4-4.38 0-4.36.42-5.35-3a5.19 5.19 0 0 0 -3.05-3.38c-4.27-1.78-6.11 2.9-8.3.71l-2.11-2.12c-2.24-2.24 2.52-4 .71-8.3v-.05c-1.79-4.27-6.39-2.3-6.39-5.37v-3c0-3.12 4.6-1 6.38-5.39s-2.88-6.1-.7-8.31c2-2 2.28-2.41 2.93-2.6 2.13-.67 3.56 2.83 7.51 1.19 4.28-1.75 2.33-6.38 5.39-6.38 4.27 0 4.35-.47 5.34 3a5.23 5.23 0 0 0 7.58 3.13c3.12-1.73 2.8-1.42 5.89 1.67 2.21 2.21-2.52 4-.71 8.3a5.13 5.13 0 0 0 3.39 3.04c3.34.96 3 .86 3 5.35z" fill="#7c7d7d"/><path d="m47 25.49c0 3.1-4.58 1-6.37 5.36-1.5 4.48 1.85 5.39 1.18 7.54a22.8 22.8 0 0 1 -5.42 3c-1.38-.76-3-1.81-5.48-.8a5.06 5.06 0 0 0 -2.64 2.41h-.27a23 23 0 0 1 -23-23 2.44 2.44 0 0 1 0-.27 5.23 5.23 0 0 0 2.11-7.16l-.53-1a22.8 22.8 0 0 1 3-5.42c2.13-.67 3.56 2.83 7.51 1.19 4.31-1.71 2.36-6.34 5.42-6.34 4.27 0 4.35-.47 5.34 3a5.23 5.23 0 0 0 7.58 3.13c3.12-1.73 2.8-1.42 5.89 1.67 2.21 2.21-2.52 4-.71 8.3a5.13 5.13 0 0 0 3.39 3.04c3.34.96 3 .86 3 5.35z" fill="#919191"/><path d="m37 24a13 13 0 0 1 -13 13c-12.23 0-17.69-15.5-8.13-23.13a13 13 0 0 1 21.13 10.13z" fill="#dad7e5"/><path d="m37 24a12.88 12.88 0 0 1 -2.87 8.13 13 13 0 0 1 -18.26-18.26 13 13 0 0 1 21.13 10.13z" fill="#edebf2"/><path d="m32.74 33.62a13 13 0 0 1 -17.49 0 4 4 0 0 1 3.75-2.62h10a4 4 0 0 1 3.74 2.62z" fill="#6fabe6"/><path d="m32.56 33.22a13 13 0 0 1 -15.44-1.74c1.16-.64 1.06-.48 11.88-.48a4 4 0 0 1 3.56 2.22z" fill="#82bcf4"/><path d="m32.56 33.22a13 13 0 0 1 -15.44-1.74c1.16-.64 1.06-.48 11.88-.48a4 4 0 0 1 3.56 2.22z" fill="#82bcf4"/><path d="m26 28.46c0 2.42.07 2.84-.18 3.36a2 2 0 0 1 -3.82-.82v-2.54z" fill="#f6ccaf"/><path d="m26 28.46c0 2.42.07 2.84-.18 3.36a2 2 0 0 1 -2.23-.41c-.73-.71-.59-1.41-.59-2.95z" fill="#ffdec7"/><path d="m28 21c0 3 .61 6-2 7.46a4 4 0 0 1 -6-3.46v-4z" fill="#f6ccaf"/><path d="m28 21c0 3.78.34 5.42-1.28 6.93a4 4 0 0 1 -4.72-3.93v-3z" fill="#ffdec7"/><path d="m28 19v2h-8c0-2.24.1-1.78-1-4h7a2 2 0 0 1 2 2z" fill="#374f68"/><g fill="#425b72"><path d="m28 19h-6.09a10.39 10.39 0 0 0 -.91-2h5a2 2 0 0 1 2 2z"/><path d="m28 25a4 4 0 0 1 -.54 2h-2.46a1 1 0 0 1 0-2z"/></g></g></svg>