<svg id="Capa_1" enable-background="new 0 0 512 512" height="512" viewBox="0 0 512 512" width="512" xmlns="http://www.w3.org/2000/svg"><g><g><g><g><g><g><path d="m249.501 341.927v-239.884c0-31.737-21.712-58.388-51.09-65.944-62.3.429-112.672 51.065-112.672 113.467 0 0-.037 166.377-.042 192.362h227.023-63.219z" fill="#756e78"/><g><path d="m245.205 103.977v125.561l-16.95 5.842v106.547h84.466c-.005-25.985-.042-192.362-.042-192.362 0-62.668-50.802-113.47-113.47-113.47-4.592 0-9.118.28-13.568.811 33.541 3.957 59.564 32.467 59.564 67.071z" fill="#665e66"/></g><g><g><g><g><path d="m299.886 337.54s-42.534-24.388-42.784-24.445c-9.736-2.238-16.71-10.9-16.71-20.959v-59.121h-82.367v59.121c0 10.059-6.974 18.721-16.71 20.959-.25.058-42.784 24.445-42.784 24.445z" fill="#ffddce"/><path d="m299.886 328.261h-201.354c-53.925 10.378-92.897 57.566-92.897 112.48v38.38c0 17.209 13.95 31.159 31.159 31.159h324.83c17.209 0 31.159-13.95 31.159-31.159v-38.38c0-54.914-38.972-102.102-92.897-112.48z" fill="#ffd064"/><path d="m249.501 118.721c-3.651-6.11-6.003-11.947-7.51-16.641-1.152-3.587-6.015-4.043-7.845-.75-17.584 31.646-52.59 45.915-92.905 45.915-.763 0-10.565 0-22.968 0v51.258c.667 44.141 36.636 79.724 80.936 79.724.19 0 .38-.001.57-.002 27.578-.19 49.722-22.869 49.722-50.448z" fill="#ffddce"/><path d="m245.205 110.454v88.048c-.577 38.161-27.546 69.906-63.466 77.812 5.628 1.239 11.469 1.913 17.47 1.913 44.3 0 80.268-35.583 80.936-79.724v-51.258c-19.368-9.83-29.577-24.822-34.94-36.791z" fill="#ffcbbe"/></g><path d="m305.165 147.245h-25.02v51.258c-.002.155-.005.31-.009.465-.002.073-.003.146-.005.218-.001.068-.003.137-.005.205-.107 4.13-.523 8.184-1.226 12.138h26.265c8.925 0 16.16-7.235 16.16-16.16v-31.964c0-8.925-7.235-16.16-16.16-16.16z" fill="#9bc4f9"/><g><g><path d="m321.325 195.369c0 8.684-6.85 15.768-15.442 16.144v16.739c0 8.897-7.238 16.136-16.136 16.136h-48.009c-4.268 0-7.726 3.459-7.726 7.726s3.459 7.726 7.726 7.726h48.009c17.417 0 31.589-14.171 31.589-31.589z" fill="#dbe8f9"/><path d="m252.048 264.354h-19.57c-7.466 0-13.519-6.053-13.519-13.519 0-7.466 6.053-13.519 13.519-13.519h19.57c7.466 0 13.519 6.053 13.519 13.519 0 7.466-6.053 13.519-13.519 13.519z" fill="#db636e"/></g></g></g></g></g><g><path d="m302.031 337.12c.738-13.588-10.076-25.011-23.681-25.022h-220.813c-13.614 0-24.438 11.428-23.7 25.022l8.331 153.483h251.532z" fill="#eaf2ff"/><path d="m340.88 312.098h-67.357c13.614 0 24.439 11.428 23.701 25.022l-8.331 153.483h67.358l8.331-153.483c.737-13.594-10.088-25.022-23.702-25.022z" fill="#dbe8f9"/><path d="m333.17 494.931v-12.291l-2.232-4.335h-314.311c-9.183 0-16.627 7.444-16.627 16.626 0 9.183 7.444 16.627 16.627 16.627h299.917c9.182 0 16.626-7.444 16.626-16.627z" fill="#9bc4f9"/><path d="m381.791 478.305h-50.853v16.627c0 9.182-7.444 16.626-16.627 16.626h67.48c9.182 0 16.626-7.444 16.626-16.626.001-9.183-7.443-16.627-16.626-16.627z" fill="#7fb2f9"/></g></g><g><path d="m429.536.442h-70.073c-12.419 0-22.487 10.068-22.487 22.487v65.043c0 12.419 10.068 22.487 22.487 22.487 4.964 0 8.58-.001 10.244 2.576h43.493c1.531-1.531 2.318-2.576 9.734-2.576h6.95c10.63-1.942 19.265-11.434 19.265-22.487v-65.043c0-11.201-8.779-20.726-19.613-22.487z" fill="#b3e59f"/><path d="m489.513.442h-67.358c12.419 0 22.487 10.068 22.487 22.487v65.043c0 12.152-9.639 22.052-21.689 22.473v.014h66.559c12.419 0 22.487-10.068 22.487-22.487v-65.043c.001-12.419-10.067-22.487-22.486-22.487z" fill="#95d6a4"/><g><g><g><path d="m477.379 46.253h-67.47c-4.268 0-7.726-3.459-7.726-7.726s3.459-7.726 7.726-7.726h67.47c4.268 0 7.726 3.459 7.726 7.726s-3.458 7.726-7.726 7.726z" fill="#f2f9ff"/></g><g><path d="m379.82 46.253h-8.223c-4.268 0-7.726-3.459-7.726-7.726s3.459-7.726 7.726-7.726h8.223c4.268 0 7.726 3.459 7.726 7.726s-3.458 7.726-7.726 7.726z" fill="#f2f9ff"/></g></g><g><g><path d="m477.379 82.576h-105.782c-4.268 0-7.726-3.459-7.726-7.726s3.459-7.726 7.726-7.726h105.783c4.268 0 7.726 3.459 7.726 7.726s-3.459 7.726-7.727 7.726z" fill="#f2f9ff"/></g></g></g></g><path d="m164.499 440.526c9.116 10.127 14.221 23.227 14.221 36.852v.927h41.493v-.927c0-13.625 5.105-26.725 14.221-36.852.068-.075.136-.151.204-.228 7.455-8.34 11.988-19.348 11.988-31.415 0-17.586-9.626-32.923-23.896-41.031-2.707-1.538-6.07.397-6.07 3.511v35.084c0 5.881-4.767 10.648-10.648 10.648h-13.09c-5.881 0-10.648-4.767-10.648-10.648v-35.084c0-3.114-3.363-5.049-6.07-3.511-14.27 8.108-23.896 23.445-23.896 41.031 0 12.067 4.533 23.075 11.988 31.415.067.076.135.152.203.228z" fill="#bcd6f9"/></g><path d="m118.302 199.765c0-.011-.001-.023-.001-.034-.053-1.703-.011-3.982-.028-52.487h-25.02c-8.925 0-16.16 7.235-16.16 16.16v31.964c0 8.925 7.235 16.16 16.16 16.16h26.265c-.682-3.834-1.094-7.762-1.216-11.763z" fill="#9bc4f9"/></g></g></g><g><path d="m422.294 110.458c-.046 0-.092.001-.139.001h-62.693c7.253 0 13.133 5.88 13.133 13.133v40.223c0 5.107 6.726 6.969 9.352 2.589l29.723-49.567c2.263-3.774 6.257-6.151 10.623-6.363v-.016z" fill="#95d6a4"/></g></g></svg>