<svg id="Capa_1" enable-background="new 0 0 512 512" height="512" viewBox="0 0 512 512" width="512" xmlns="http://www.w3.org/2000/svg"><g><g><g><path d="m473.221 77.056c0-31.528-16.412-59.704-41.158-75.489-6.635-4.233-15.333.617-15.333 8.487v60.875c0 17.901-14.511 32.412-32.412 32.412-17.901 0-32.412-14.511-32.412-32.412v-60.875c0-7.87-8.698-12.72-15.333-8.487-24.746 15.785-41.158 43.961-41.158 75.489 0 22.748 8.545 43.499 22.599 59.222.455.509 1.008 1.172 1.641 1.963 13.743 17.163 21.118 38.558 21.118 60.545v269.668c0 24.05 19.496 43.546 43.546 43.546 24.05 0 43.546-19.496 43.546-43.546v-269.668c0-21.988 7.375-43.382 21.118-60.545.633-.791 1.186-1.454 1.641-1.963 14.052-15.723 22.597-36.474 22.597-59.222z" fill="#c9e0fd"/><path d="m384.317 480.744c-8.038 0-14.554-6.516-14.554-14.554v-296.018c0-8.038 6.516-14.554 14.554-14.554 8.038 0 14.554 6.516 14.554 14.554v296.018c.001 8.038-6.516 14.554-14.554 14.554z" fill="#eaf2ff"/></g><g><path d="m380.178 285.928c13.666 0 25.183-11.184 24.92-24.847-.229-11.85-10.217-23.332-21.847-25.613l-26.883-.022c-10.999 0-14.797-.823-15.506-3.776h-51.316c-1.974 0-3.961-.346-5.787-.977l-4.719 1.189-5.837 7.413c-8.024 10.19-20.278 16.137-33.248 16.137h-91.875v148.266h109.222c5.364 0 10.678 1.02 15.661 3.005l34.928 13.915c16.573 5.65 33.88 8.808 51.357 9.399 8.843-3.951 14.911-12.998 14.421-23.418-.312-6.623-3.354-12.466-7.976-16.633-.992-.894-1.483-2.214-1.283-3.534.255-1.681 1.553-3.045 3.234-3.296 11.255-1.682 20.146-11.209 20.161-22.883.014-10.881-5.941-19.879-14.806-23.656-.566-.241-.91-.819-.818-1.428.083-.55.504-.978 1.047-1.098 10.759-2.366 19.162-11.565 19.541-22.939.319-9.573-4.888-17.954-12.673-22.214-.496-.272-.781-.812-.696-1.372l.165-1.09c.046-.304.306-.528.613-.528z" fill="#ffddce"/><g><path d="m80.241 386.826c18.009 0 32.608-14.599 32.608-32.608v-101.228l-4.507-4.507h-52.433c-9.461 0-17.13 7.669-17.13 17.13v116.705l4.507 4.507h36.955z" fill="#e07f84"/><path d="m209.618 248.483h-101.276v101.227c0 18.009-14.599 32.608-32.608 32.608h-36.955v13.251c0 9.461 7.669 17.13 17.13 17.13h153.708z" fill="#db636e"/><path d="m198.116 226.107c-12.384 0-22.424 10.04-22.424 22.424v157.79c0 12.384 10.04 22.424 22.424 22.424 12.384 0 22.424-10.04 22.424-22.424v-157.79c0-12.384-10.04-22.424-22.424-22.424z" fill="#d84a54"/></g></g></g><g fill="#ffcbbe"><path d="m357.473 235.448-1.106-.001c-9.033 0-15.606-7.135-15.604-16.169v-21.185c-20.922 0-41.431 8.02-54.375 24.457l-7.349 9.332c2.65 2.233 6.612 3.565 10.506 3.565h67.928z"/><path d="m440.135 284.254c13.459 0 24.42-10.911 24.42-24.37s-10.961-24.369-24.42-24.369l-67.982-.055c13.3 0 24.791 10.708 25.047 23.947.263 13.663-11.254 24.847-24.92 24.847-.306 0-.567.224-.613.527l-.165 1.09c-.085.559.2 1.1.696 1.372 7.785 4.261 12.993 12.642 12.673 22.214-.379 11.374-8.782 20.573-19.541 22.939-.543.12-.964.548-1.047 1.098-.092.609.252 1.187.818 1.428 8.865 3.778 14.82 12.776 14.806 23.656-.015 11.674-8.906 21.201-20.161 22.883-1.682.251-2.979 1.615-3.234 3.296-.2 1.32.291 2.64 1.283 3.534 4.622 4.167 7.664 10.01 7.976 16.633.537 11.416-6.786 21.205-17.021 24.425 5.48.511 10.986.777 16.505.777l43.525.345c13.849 0 25-11.553 24.342-25.547-.454-9.642-6.685-17.646-15.171-21.205-.386-.162-.642-.533-.642-.951 0-.572.464-1.036 1.036-1.036h5.197c12.88 0 23.7-10.274 23.716-23.154.018-14.093-9.974-25.038-23.339-25.557v-.027l3.309-.002c13.245 0 24.553-10.298 24.994-23.536.43-12.9-9.169-23.644-21.598-25.044v-.159h9.511z"/></g></g></svg>