<svg id="Capa_1" enable-background="new 0 0 512 512" height="512" viewBox="0 0 512 512" width="512" xmlns="http://www.w3.org/2000/svg"><g><g><g><g><g><g><path d="m318.707 512c15.322 0 27.744-12.421 27.744-27.744v-432.273h-259.648l-9.272-8.762h-16.019c-15.322 0-27.744 12.421-27.744 27.744v413.292c0 15.322 12.421 27.744 27.744 27.744z" fill="#c9e0fd"/><path d="m346.451 43.22h-268.92v408.373c0 8.083 6.552 14.635 14.635 14.635h254.285z" fill="#eaf2ff"/><path d="m379.829 43.22h-34.311v417.681c0 2.915-2.342 5.283-5.247 5.325v18.029c0 15.322-12.421 27.744-27.744 27.744h67.302c15.322 0 27.744-12.421 27.744-27.744v-413.291c-.001-15.322-12.422-27.744-27.744-27.744z" fill="#bcd6f9"/><path d="m340.27 43.22v423.007h8.905c8.082 0 14.635-6.552 14.635-14.635v-408.372z" fill="#dbe8f9"/><g><path d="m250.628 37.485v-7.528c0-16.545-13.413-29.957-29.958-29.957-16.545 0-29.958 13.412-29.958 29.958v7.528c0 3.167-2.568 5.735-5.735 5.735h-33.476c-6.362 0-11.52 5.157-11.52 11.52v19.617c0 6.303 5.11 11.413 11.413 11.413h138.551c6.303 0 11.413-5.11 11.413-11.413v-19.618c0-6.362-5.157-11.52-11.52-11.52h-33.476c-3.166 0-5.734-2.567-5.734-5.735z" fill="#89808c"/></g></g><g><path d="m325.625 244.035c-.02-5.646-4.613-10.207-10.259-10.187h-.004c-4.381.015-8.288-2.761-9.702-6.908-1.284-3.763-2.825-7.457-4.622-11.055-1.954-3.912-1.178-8.637 1.904-11.74 3.978-4.006 3.956-10.479-.051-14.458l-16.474-16.359c-4.006-3.978-10.479-3.956-14.458.051-3.081 3.103-7.801 3.912-11.727 1.986-3.611-1.772-7.315-3.287-11.087-4.545-4.156-1.386-6.96-5.273-6.975-9.654v-.004c-.02-5.646-4.613-10.207-10.259-10.187l-23.216.081c-5.646.02-10.207 4.613-10.187 10.259v.004c.015 4.381-2.761 8.288-6.907 9.703-3.763 1.284-7.457 2.825-11.055 4.622-3.912 1.954-8.637 1.178-11.74-1.904-4.006-3.978-10.479-3.956-14.458.051l-16.359 16.474c-3.979 4.006-3.956 10.479.051 14.458 3.103 3.082 3.912 7.801 1.986 11.727-1.772 3.611-3.287 7.315-4.545 11.087-1.386 4.156-5.273 6.96-9.654 6.975h-.004c-5.646.02-10.207 4.613-10.187 10.259l.081 23.216c.02 5.646 4.613 10.207 10.259 10.187h.004c4.381-.015 8.288 2.761 9.703 6.908 1.284 3.763 2.825 7.456 4.622 11.055 1.954 3.912 1.178 8.637-1.904 11.74-3.979 4.006-3.956 10.479.051 14.458l16.474 16.359c4.006 3.978 10.479 3.956 14.458-.051 3.082-3.103 7.801-3.912 11.727-1.986 3.611 1.772 7.316 3.287 11.087 4.545 4.156 1.386 6.96 5.273 6.975 9.654v.004c.02 5.646 4.613 10.207 10.259 10.187l23.216-.081c5.646-.02 10.207-4.613 10.187-10.259v-.004c-.015-4.381 2.761-8.288 6.907-9.702 3.763-1.284 7.457-2.825 11.055-4.622 3.912-1.954 8.637-1.178 11.74 1.904 4.006 3.978 10.479 3.956 14.458-.051l16.359-16.474c3.978-4.006 3.956-10.479-.051-14.458-3.103-3.082-3.912-7.801-1.986-11.727 1.772-3.611 3.287-7.315 4.545-11.087 1.386-4.156 5.273-6.96 9.654-6.975h.004c5.646-.02 10.207-4.613 10.187-10.259zm-71.672 45.026c-18.253 18.381-47.952 18.485-66.333.232-18.382-18.253-18.485-47.952-.232-66.333s47.952-18.485 66.333-.232 18.485 47.951.232 66.333z" fill="#b3e59f"/></g></g><circle cx="220.67" cy="30.23" fill="#eaf7f7" r="7.552"/></g><g><path d="m458.913 244.154 16.512-22.828c4.786-6.617 3.302-15.862-3.315-20.648l-6.046-4.373c-6.617-4.786-15.862-3.302-20.648 3.315l-16.512 22.828z" fill="#756e78"/><g><g><path d="m285.784 489.446-37.632 21.897c-3.558 2.071-7.886-1.059-7.033-5.087l9.016-42.595c1.493-7.054 4.448-13.717 8.673-19.559l162.302-224.386c3.724-5.148 10.916-6.303 16.065-2.579l24.193 17.499c5.148 3.724 6.303 10.916 2.579 16.065l-162.302 224.385c-4.226 5.842-9.629 10.734-15.861 14.36z" fill="#e07f84"/></g><g><path d="m285.784 489.446-37.632 21.897c-3.558 2.071-7.886-1.059-7.033-5.087l9.016-42.595c1.493-7.054 4.448-13.717 8.673-19.559l42.836 30.984c-4.225 5.842-9.628 10.734-15.86 14.36z" fill="#756e78"/></g></g></g></g></g><g><g><path d="m220.665 310.642c-14.52 0-28.181-5.63-38.489-15.866-21.375-21.226-21.496-55.885-.27-77.26 10.282-10.355 23.981-16.085 38.574-16.136h.196c14.52 0 28.181 5.63 38.489 15.866 10.355 10.282 16.086 23.981 16.136 38.574.051 14.593-5.583 28.331-15.866 38.686-10.282 10.355-23.981 16.086-38.574 16.136-.065 0-.131 0-.196 0zm.01-93.81c-.047 0-.094 0-.141 0-10.465.037-20.289 4.146-27.663 11.572s-11.415 17.279-11.378 27.743c.036 10.465 4.146 20.289 11.572 27.663 7.392 7.341 17.19 11.378 27.603 11.378.047 0 .094 0 .141-.001 10.465-.036 20.289-4.146 27.663-11.572 7.374-7.426 11.415-17.279 11.378-27.743-.036-10.465-4.146-20.289-11.572-27.663-7.394-7.339-17.191-11.377-27.603-11.377z" fill="#95d6a4"/></g></g></g></svg>